<?xml version="1.0" encoding="utf-8"?>
<!-- Generator: Adobe Illustrator 22.0.1, SVG Export Plug-In . SVG Version: 6.00 Build 0)  -->
<svg version="1.1" id="Layer_1" xmlns="http://www.w3.org/2000/svg" xmlns:xlink="http://www.w3.org/1999/xlink" x="0px" y="0px"
	 viewBox="0 0 630 280" style="enable-background:new 0 0 630 280;" xml:space="preserve">
<style type="text/css">
	.st0{fill:none;stroke:#000000;stroke-miterlimit:10;}
	.st1{opacity:0.25;fill:none;stroke:#005EA5;stroke-miterlimit:10;}
	.st2{font-family:'NTA-Light';}
	.st3{font-size:19px;}
	.st4{font-size:14px;}
	.st5{fill:none;stroke:#005EA5;stroke-miterlimit:10;}
</style>
<line class="st0" x1="30" y1="16" x2="37.5" y2="16"/>
<line class="st0" x1="30" y1="53.5" x2="37.5" y2="53.5"/>
<line class="st0" x1="30" y1="91" x2="37.5" y2="91"/>
<line class="st0" x1="30" y1="128.5" x2="37.5" y2="128.5"/>
<line class="st0" x1="30" y1="166" x2="37.5" y2="166"/>
<line class="st0" x1="30" y1="203.5" x2="37.5" y2="203.5"/>
<text transform="matrix(1 0 0 1 2.2152 20.6803)" class="st2 st3">60</text>
<text transform="matrix(1 0 0 1 2.7094 58.1803)" class="st2 st3">50</text>
<text transform="matrix(1 0 0 1 1.9115 95.6803)" class="st2 st3">40</text>
<text transform="matrix(1 0 0 1 2.5575 133.1803)" class="st2 st3">30</text>
<text transform="matrix(1 0 0 1 2.8612 170.6803)" class="st2 st3">20</text>
<text transform="matrix(1 0 0 1 7.2504 208.1803)" class="st2 st3">10</text>
<text transform="matrix(1 0 0 1 14.1283 245.6803)" class="st2 st3">0</text>
<text transform="matrix(1 0 0 1 0.5868 267.1803)" class="st2 st4">Saturday</text>
<text transform="matrix(1 0 0 1 105.077 267.1803)" class="st2 st4">Sunday</text>
<text transform="matrix(1 0 0 1 194.2893 267.1803)" class="st2 st4">Monday</text>
<text transform="matrix(1 0 0 1 288.5949 267.1803)" class="st2 st4">Tuesday</text>
<text transform="matrix(1 0 0 1 360.4171 267.1803)" class="st2 st4">Wednesday</text>
<text transform="matrix(1 0 0 1 466.4512 267.1803)" class="st2 st4">Thursday</text>
<text transform="matrix(1 0 0 1 581.9887 267.1803)" class="st2 st4">Friday</text>
<polyline class="st5" points="620.2,57.2 526.2,42.2 432.2,38.5 338.2,53.5 244.2,42.2 150.2,218.5 56.2,237.2 "/>
<line class="st0" x1="150.2" y1="241" x2="150.2" y2="248.5"/>
<line class="st0" x1="56.2" y1="241" x2="56.2" y2="248.5"/>
<line class="st0" x1="244.2" y1="241" x2="244.2" y2="248.5"/>
<line class="st0" x1="338.2" y1="241" x2="338.2" y2="248.5"/>
<line class="st0" x1="432.2" y1="241" x2="432.2" y2="248.5"/>
<line class="st0" x1="526.2" y1="241" x2="526.2" y2="248.5"/>
<polyline class="st0" points="30,241 620,241 620.2,241 620.2,248.5 "/>
<line class="st0" x1="620.2" y1="248.5" x2="620.2" y2="241"/>
</svg>
